<?xml version="1.0" encoding="UTF-8"?>
<svg xmlns="http://www.w3.org/2000/svg" xmlns:xlink="http://www.w3.org/1999/xlink" width="400pt" height="250pt" viewBox="0 0 400 250" version="1.2">
<defs>
<linearGradient id="linear0" gradientUnits="userSpaceOnUse" x1="0.5" y1="0" x2="0.5" y2="1" gradientTransform="matrix(400,0,0,250,0,0)">
<stop offset="0" style="stop-color:rgb(100%,100%,100%);stop-opacity:1;"/>
<stop offset="1" style="stop-color:rgb(90%,90%,90%);stop-opacity:1;"/>
</linearGradient>
</defs>
<g id="surface0">
<path style=" stroke:none;fill-rule:nonzero;fill:url(#linear0);" d="M 0 0 L 400 0 L 400 250 L 0 250 Z M 0 0 "/>
<path style=" stroke:none;fill-rule:nonzero;fill:rgb(46.875%,75%,18.75%);fill-opacity:1;" d="M 0 0.625 L 144 0.625 C 160 0.625 160 0.625 160 10.625 L 160 72.707031 C 160 82.707031 160 82.707031 144 82.707031 L 0 82.707031 Z M 0 0.625 "/>
<path style=" stroke:none;fill-rule:nonzero;fill:rgb(18.75%,75%,75%);fill-opacity:1;" d="M 0 83.957031 L 384 83.957031 C 400 83.957031 400 83.957031 400 93.957031 L 400 156.042969 C 400 166.042969 400 166.042969 384 166.042969 L 0 166.042969 Z M 0 83.957031 "/>
<path style=" stroke:none;fill-rule:nonzero;fill:rgb(46.875%,18.75%,75%);fill-opacity:1;" d="M 0 167.292969 L 224 167.292969 C 240 167.292969 240 167.292969 240 177.292969 L 240 239.375 C 240 249.375 240 249.375 224 249.375 L 0 249.375 Z M 0 167.292969 "/>
<path style="fill:none;stroke-width:0.005;stroke-linecap:butt;stroke-linejoin:miter;stroke:rgb(70%,70%,70%);stroke-opacity:1;stroke-miterlimit:10;" d="M 0 0 L 1 0 L 1 1 L 0 1 Z M 0 0 " transform="matrix(400,0,0,250,0,0)"/>
</g>
</svg>
